<?xml version="1.0" encoding="utf-8"?>
<!-- Generator: Adobe Illustrator 18.0.0, SVG Export Plug-In . SVG Version: 6.00 Build 0)  -->
<!DOCTYPE svg PUBLIC "-//W3C//DTD SVG 1.1//EN" "http://www.w3.org/Graphics/SVG/1.1/DTD/svg11.dtd">
<svg version="1.1" id="Capa_1" xmlns="http://www.w3.org/2000/svg" xmlns:xlink="http://www.w3.org/1999/xlink" x="0px" y="0px"
	 viewBox="0 0 216 216" enable-background="new 0 0 216 216" xml:space="preserve">
<path fill="#FFFFFF" d="M108,216c-0.6,0-1.3,0-1.9,0c-0.2,0-0.4,0-0.6,0c-0.4,0-0.7,0-1.1-0.1c-35.9-1.2-67.4-19.9-86.2-47.9
	c-0.2-0.2-0.4-0.5-0.5-0.8C6.5,150.2,0,129.8,0,107.8l0,0c0-28.8,11.3-56,31.7-76.3C51.4,12,77.2,0.9,104.8,0.1c0.4,0,0.8,0,1.1-0.1
	c0.2,0,0.4,0,0.6,0c0.6,0,1.1,0,1.7,0c28.8,0,56,11.3,76.3,31.7S216,79.3,216,108.2c0,21.9-6.6,42.3-17.9,59.3
	c-0.1,0.3-0.3,0.6-0.6,0.9C178.1,197.1,145.2,216,108,216z M104.3,209.6c0.6,0.1,1.2,0.1,1.8,0.1c6-0.6,12.4-11.1,17.2-28.4
	c1.1-3.8,2-7.8,2.9-12.1L85,169.2c0.9,4.2,1.8,8.3,2.9,12.1C92.5,197.9,98.6,208.3,104.3,209.6z M132.7,169.3
	c-1,4.9-2.1,9.5-3.3,13.8c-3.2,11.4-7,20-11.3,25.5c17.3-4.1,32.4-18.6,42.6-39.2L132.7,169.3z M55.1,169.2
	c8.9,18.2,21.8,31.7,36.6,37.5c-3.7-5.5-7.1-13.5-9.9-23.7c-1.2-4.3-2.3-8.9-3.2-13.8L55.1,169.2z M167.5,169.3
	c-6.9,14.8-16.1,26.9-26.9,35c19.5-6.6,36.3-18.9,48.5-35L167.5,169.3z M26.7,169.1c12.1,16.1,28.9,28.5,48.4,35.2
	c-10.8-8.2-20-20.3-26.8-35.1L26.7,169.1z M170.2,163l23.3,0c9.7-15,15.6-32.8,16.2-51.8l-29.3,0C180,130.1,176.3,147.8,170.2,163z
	 M133.9,163l29.7,0c6.3-15,10.1-32.8,10.5-51.8l-35.8-0.1C138.1,129.7,136.6,147.5,133.9,163z M83.8,162.9l43.7,0.1
	c2.7-15.4,4.3-33.2,4.5-51.8l-52.5-0.1C79.6,129.7,81.1,147.5,83.8,162.9z M52.3,162.9l25.1,0c-2.6-15.5-4.1-33.3-4.2-51.8l-31.3,0
	C42.2,130.1,46,147.8,52.3,162.9z M22.4,162.8l23.2,0c-6.1-15.3-9.7-33-10-51.8l-29.3,0C6.9,130,12.7,147.8,22.4,162.8z M180.4,105
	l29.3,0c-0.5-18-5.7-35.2-14.9-50.2l-23.6,0C176.9,69.9,180.1,87.1,180.4,105z M138.3,104.9l35.8,0.1c-0.3-18-3.7-35.2-9.7-50.2
	l-30.1,0C136.8,69.8,138.1,87,138.3,104.9z M79.5,104.8l52.5,0.1c-0.1-18-1.5-35.2-4-50.2l-44.3-0.1C81.1,69.7,79.7,86.8,79.5,104.8
	z M41.9,104.8l31.3,0c0.2-17.9,1.6-35.1,4.1-50.2l-25.5,0C45.7,69.6,42.3,86.8,41.9,104.8z M6.3,104.7l29.3,0
	c0.4-17.9,3.6-35,9.4-50.2l-23.6,0C12.1,69.5,6.9,86.7,6.3,104.7z M168.5,48.5l22,0c-3.1-4.3-6.6-8.5-10.5-12.3
	c-11.1-11.2-24.4-19.4-38.9-24.4c6.8,5.2,13.1,12.1,18.6,20.4C163,37.2,166,42.7,168.5,48.5z M133.2,48.4l28.4,0
	c-2.1-4.5-4.5-8.8-7.2-12.8c-10-15.2-22.5-24.9-36.1-28.1c4.3,5.5,8.1,14.1,11.2,25.5C131,37.8,132.2,43,133.2,48.4z M84.8,48.3
	l42,0.1c-0.9-4.8-2-9.4-3.2-13.7C118.8,17.5,112.4,7,106.5,6.3c-0.6,0-1.2,0.1-1.8,0.1c-5.8,1.3-11.9,11.7-16.6,28.3
	C86.9,38.9,85.8,43.5,84.8,48.3z M54.5,48.3l23.9,0c1.1-5.4,2.3-10.6,3.6-15.4c2.9-10.2,6.2-18.1,10-23.6
	c-11.3,4.4-21.7,13.3-30.3,26.2C59.1,39.5,56.7,43.8,54.5,48.3z M25.7,48.3l22,0c2.6-5.8,5.5-11.2,8.9-16.2
	c5.5-8.4,11.8-15.2,18.7-20.4c-14.5,4.9-27.8,13.2-39,24.3C32.3,39.8,28.8,43.9,25.7,48.3z"/>
</svg>
