<?xml version="1.0" encoding="utf-8"?>
<!-- Generator: Adobe Illustrator 18.0.0, SVG Export Plug-In . SVG Version: 6.00 Build 0)  -->
<!DOCTYPE svg PUBLIC "-//W3C//DTD SVG 1.1//EN" "http://www.w3.org/Graphics/SVG/1.1/DTD/svg11.dtd">
<svg version="1.1" id="Capa_1" xmlns="http://www.w3.org/2000/svg" xmlns:xlink="http://www.w3.org/1999/xlink" x="0px" y="0px"
	 viewBox="0 0 560.4 560.4" enable-background="new 0 0 560.4 560.4" xml:space="preserve">
<g>
	<g>
		<path fill="#FFFFFF" d="M372.6,524.7h-23V168.3c0,0,0-0.1,0-0.1c0-0.2,0-0.3-0.1-0.5c0-0.1,0-0.1,0-0.2c0-0.2-0.1-0.4-0.2-0.6
			c0,0,0-0.1-0.1-0.1c-0.1-0.1-0.1-0.3-0.2-0.4c0-0.1-0.1-0.1-0.1-0.2c0,0-0.1-0.1-0.1-0.1l-29-37.1V92.1c0-2-1.6-3.5-3.5-3.5H306
			V58.9c0-2-1.6-3.5-3.5-3.5h-5.6V34.8c0-2-1.6-3.5-3.5-3.5h-9.6V3.5c0-2-1.6-3.5-3.5-3.5s-3.5,1.6-3.5,3.5v27.7h-9.6
			c-2,0-3.5,1.6-3.5,3.5v20.5h-5.6c-2,0-3.5,1.6-3.5,3.5v29.7h-10.2c-2,0-3.5,1.6-3.5,3.5V129l-29,37.1c0,0-0.1,0.1-0.1,0.1
			c0,0.1-0.1,0.1-0.1,0.2c-0.1,0.1-0.2,0.3-0.2,0.4c0,0,0,0.1-0.1,0.1c-0.1,0.2-0.1,0.4-0.2,0.6c0,0.1,0,0.1,0,0.2
			c0,0.2,0,0.3-0.1,0.5c0,0,0,0.1,0,0.1v356.4h-23c-2,0-3.5,1.6-3.5,3.5v28.6c0,2,1.6,3.5,3.5,3.5h184.7c2,0,3.5-1.6,3.5-3.5v-28.6
			C376.1,526.3,374.5,524.7,372.6,524.7z M218,171.8h124.5v121.7H218V171.8z M289.8,38.4v17h-19.2v-17H289.8z M267.1,62.4h26.2h5.6
			v26.1h-37.5V62.4H267.1z M257.9,95.6h44.6h10.2v31.1h-64.9V95.6H257.9z M245.9,133.8h68.6l24.2,30.9h-117L245.9,133.8z M218,300.5
			h124.5v224.2H218V300.5z M369,553.3H191.4v-21.5h23H346h23L369,553.3L369,553.3z"/>
		<path fill="#FFFFFF" d="M280.2,179.8c-28,0-50.8,22.8-50.8,50.8c0,28,22.8,50.8,50.8,50.8c28,0,50.8-22.8,50.8-50.8
			C331,202.6,308.2,179.8,280.2,179.8z M280.2,274.3c-24.1,0-43.7-19.6-43.7-43.7c0-24.1,19.6-43.7,43.7-43.7
			c24.1,0,43.7,19.6,43.7,43.7C323.9,254.7,304.3,274.3,280.2,274.3z"/>
		<path fill="#FFFFFF" d="M244.7,323.6c-2,0-3.5,1.6-3.5,3.5v180.1c0,2,1.6,3.5,3.5,3.5c2,0,3.5-1.6,3.5-3.5V327.1
			C248.3,325.2,246.7,323.6,244.7,323.6z"/>
		<path fill="#FFFFFF" d="M268.2,323.6c-2,0-3.5,1.6-3.5,3.5v180.1c0,2,1.6,3.5,3.5,3.5c2,0,3.5-1.6,3.5-3.5V327.1
			C271.8,325.2,270.2,323.6,268.2,323.6z"/>
		<path fill="#FFFFFF" d="M291.7,323.6c-2,0-3.5,1.6-3.5,3.5v180.1c0,2,1.6,3.5,3.5,3.5c2,0,3.5-1.6,3.5-3.5V327.1
			C295.3,325.2,293.7,323.6,291.7,323.6z"/>
		<path fill="#FFFFFF" d="M315.2,323.6c-2,0-3.5,1.6-3.5,3.5v180.1c0,2,1.6,3.5,3.5,3.5c2,0,3.5-1.6,3.5-3.5V327.1
			C318.8,325.2,317.2,323.6,315.2,323.6z"/>
		<path fill="#FFFFFF" d="M280.2,227.1h-28.3c-2,0-3.5,1.6-3.5,3.5s1.6,3.5,3.5,3.5h24.8v26.6c0,2,1.6,3.5,3.5,3.5
			c2,0,3.5-1.6,3.5-3.5v-30.1C283.7,228.6,282.2,227.1,280.2,227.1z"/>
	</g>
</g>
</svg>
