<?xml version="1.0" encoding="utf-8"?>
<!-- Generator: Adobe Illustrator 18.0.0, SVG Export Plug-In . SVG Version: 6.00 Build 0)  -->
<!DOCTYPE svg PUBLIC "-//W3C//DTD SVG 1.1//EN" "http://www.w3.org/Graphics/SVG/1.1/DTD/svg11.dtd">
<svg version="1.1" id="Capa_1" xmlns="http://www.w3.org/2000/svg" xmlns:xlink="http://www.w3.org/1999/xlink" x="0px" y="0px"
	 viewBox="0 0 575 575" enable-background="new 0 0 575 575" xml:space="preserve">
<g>
	<g>
		<path fill="#FFFFFF" d="M169.8,203.7c-8,0-14.6,6.5-14.6,14.6v33.4c0,2,1.6,3.7,3.7,3.7h21.8c2,0,3.7-1.6,3.7-3.7v-33.4
			C184.4,210.2,177.8,203.7,169.8,203.7z M177,248h-14.5v-29.7c0-4,3.2-7.2,7.2-7.2s7.2,3.2,7.2,7.2V248z"/>
		<path fill="#FFFFFF" d="M405.2,203.7c-8,0-14.6,6.5-14.6,14.6v33.4c0,2,1.6,3.7,3.7,3.7h21.8c2,0,3.7-1.6,3.7-3.7v-33.4
			C419.7,210.2,413.2,203.7,405.2,203.7z M412.4,248h-14.5v-29.7c0-4,3.2-7.2,7.2-7.2s7.2,3.2,7.2,7.2L412.4,248L412.4,248z"/>
		<path fill="#FFFFFF" d="M571.3,346.7h-37.5V273c13,3.6,25.9,5.6,37.5,5.6c2,0,3.7-1.6,3.7-3.7s-1.6-3.7-3.7-3.7
			c-12.4,0-26.3-2.4-40.3-6.7c-0.1,0-0.1,0-0.2-0.1c-15.5-4.8-31.1-11.9-45-20.9c-17.1-11-45.8-34.1-45.8-65v-17
			c0-0.4-0.1-0.8-0.2-1.2l-7-19.7c-0.5-1.5-1.9-2.4-3.5-2.4c0,0,0,0-0.1,0c-1.6,0-3,1.1-3.4,2.6l-5.5,17.2h-3l-8.9-35.9
			c-0.4-1.6-1.9-2.8-3.6-2.8c0,0,0,0,0,0c-1.7,0-3.2,1.2-3.6,2.9L393,158h-3l-6.1-17.3c-0.5-1.5-1.9-2.4-3.5-2.4c0,0,0,0-0.1,0
			c-1.6,0-3,1.1-3.4,2.6l-6.3,19.7c-0.1,0.4-0.2,0.7-0.2,1.1V198H204.6v-36.4c0-0.4-0.1-0.8-0.2-1.2l-7-19.7c-0.5-1.5-2-2.5-3.5-2.4
			c-1.6,0-3,1.1-3.4,2.6L185,158h-3L173,122c-0.4-1.7-2-2.8-3.6-2.8c-1.7,0-3.2,1.2-3.6,2.9l-8.3,35.9h-3l-6.1-17.3
			c-0.5-1.5-1.9-2.5-3.5-2.4c-1.6,0-3,1.1-3.4,2.6l-6.3,19.7c-0.1,0.4-0.2,0.7-0.2,1.1v17c0,30.9-28.7,54-45.8,65
			c-13.9,8.9-29.5,16.1-45,20.9c-0.1,0-0.2,0.1-0.2,0.1c-14,4.3-27.8,6.7-40.2,6.7c-2,0-3.7,1.6-3.7,3.7s1.6,3.7,3.7,3.7
			c11.6,0,24.5-2,37.5-5.6v73.7H3.7c-2,0-3.7,1.6-3.7,3.7V368c0,2,1.6,3.7,3.7,3.7h120.4V452c0,2,1.6,3.7,3.7,3.7h84
			c2,0,3.7-1.6,3.7-3.7v-50l72-30.1l72,30.1v50c0,2,1.6,3.7,3.7,3.7h84c2,0,3.7-1.6,3.7-3.7v-80.3h120.4c2,0,3.7-1.6,3.7-3.7v-17.6
			C575,348.3,573.3,346.7,571.3,346.7z M526.4,270.9v75.8H485v-94.9C498,259.8,512.2,266.3,526.4,270.9z M477.7,247.1v99.6H440
			V207.3C447.4,221.5,460.1,235,477.7,247.1z M377.7,364.3v-7.4V219.3v-17.5v-19.4h55v168.1v13.9H377.7L377.7,364.3z M363.1,364.3
			h-75.6c0,0,0,0,0,0h0c0,0,0,0,0,0h-75.6h-7.2v-3.7h165.7v3.7H363.1z M269.1,371.7L225.4,390v-18.3L269.1,371.7L269.1,371.7z
			 M349.6,371.7V390l-43.8-18.3L349.6,371.7L349.6,371.7z M142.3,364.3v-13.9V182.3h55v19.4v17.5v137.7v7.4L142.3,364.3L142.3,364.3
			z M370.3,353.2H204.6V222.9h165.7V353.2L370.3,353.2z M380.5,153.4l3.4,9.4c0.5,1.5,1.9,2.4,3.5,2.4h8.6c1.7,0,3.2-1.2,3.6-2.9
			l5.5-23.8l5.9,23.8c0.4,1.6,1.9,2.8,3.6,2.8h8.6c1.6,0,3-1,3.5-2.6l3-9.3l3.1,8.9V175h-55v-12.7L380.5,153.4z M370.3,205.4v10.2
			H204.6v-10.2H370.3z M145.1,153.4l3.4,9.4c0.5,1.5,1.9,2.4,3.5,2.4h8.6c1.7,0,3.2-1.2,3.6-2.9l5.5-23.8l5.9,23.8
			c0.4,1.6,1.9,2.8,3.6,2.8h8.6c1.6,0,3-1,3.5-2.6l3-9.3l3.1,8.9V175h-55v-12.7L145.1,153.4z M135,207.3v139.4H97.3v-99.6
			C114.8,235,127.6,221.5,135,207.3z M48.5,270.9c14.2-4.6,28.5-11.1,41.4-19v94.9H48.5V270.9z M7.4,354.1H135v10.3h-7.2H7.4V354.1z
			 M208.1,448.3h-76.7v-76.7h7.2H201h7.2v27.9L208.1,448.3L208.1,448.3z M215.5,371.7h2.5V393l-2.5,1.1V371.7z M356.9,393v-21.4h2.5
			v22.4L356.9,393z M443.5,448.3h-76.7v-48.7v-27.9h7.2h62.3h7.2L443.5,448.3L443.5,448.3z M567.6,364.3H447.2H440v-10.3h127.6
			V364.3z"/>
	</g>
</g>
</svg>
