<?xml version="1.0" encoding="utf-8"?>
<!-- Generator: Adobe Illustrator 18.0.0, SVG Export Plug-In . SVG Version: 6.00 Build 0)  -->
<!DOCTYPE svg PUBLIC "-//W3C//DTD SVG 1.1//EN" "http://www.w3.org/Graphics/SVG/1.1/DTD/svg11.dtd">
<svg version="1.1" id="Capa_1" xmlns="http://www.w3.org/2000/svg" xmlns:xlink="http://www.w3.org/1999/xlink" x="0px" y="0px"
	 viewBox="0 0 512.1 512.1" enable-background="new 0 0 512.1 512.1" xml:space="preserve">
<g>
	<g>
		<path fill="#FFFFFF" d="M352.9,438.6h-20.3v-29.8c0-2-1.6-3.6-3.6-3.6h-14.1V176.7c0-2-1.6-3.6-3.6-3.6h-9.7v-28.1
			c0-2-1.6-3.6-3.6-3.6h-17.6v-28.1c0-2-1.6-3.6-3.6-3.6h-4c-3.1-6.6-13.2-31.5-13.2-76.7V3.6c0-2-1.6-3.6-3.6-3.6
			c-2,0-3.6,1.6-3.6,3.6v29.5c0,45.2-10.1,70.1-13.2,76.7h-4c-2,0-3.6,1.6-3.6,3.6v28.1H214c-2,0-3.6,1.6-3.6,3.6v28.1h-9.7
			c-2,0-3.6,1.6-3.6,3.6v228.5h-14.1c-2,0-3.6,1.6-3.6,3.6v29.8h-20.3c-2,0-3.6,1.6-3.6,3.6v66.3c0,2,1.6,3.6,3.6,3.6h193.7
			c2,0,3.6-1.6,3.6-3.6v-66.3C356.5,440.2,354.9,438.6,352.9,438.6z M256.1,77.7c2.7,15.7,6.4,26.3,8.9,32.1h-17.8
			C249.6,104,253.3,93.4,256.1,77.7z M238.9,117h2.7c0,0,0,0,0,0c0,0,0,0,0,0h31.7v24.5h-34.4V117L238.9,117z M217.6,148.6h17.6
			h41.6h17.6v24.5h-76.9V148.6L217.6,148.6z M204.4,180.3h9.7h84h9.7v224.9H204.4L204.4,180.3L204.4,180.3z M186.7,412.4h14.1h110.6
			h14.1v26.3H186.7L186.7,412.4L186.7,412.4z M349.3,505H162.8v-59.2h20.3H329h20.3L349.3,505L349.3,505z"/>
		<path fill="#FFFFFF" d="M220.8,190.2c-2,0-3.6,1.6-3.6,3.6v25.5c0,2,1.6,3.6,3.6,3.6s3.6-1.6,3.6-3.6v-25.5
			C224.4,191.8,222.8,190.2,220.8,190.2z"/>
		<path fill="#FFFFFF" d="M238.4,190.2c-2,0-3.6,1.6-3.6,3.6v25.5c0,2,1.6,3.6,3.6,3.6c2,0,3.6-1.6,3.6-3.6v-25.5
			C242,191.8,240.4,190.2,238.4,190.2z"/>
		<path fill="#FFFFFF" d="M256.1,190.2c-2,0-3.6,1.6-3.6,3.6v25.5c0,2,1.6,3.6,3.6,3.6c2,0,3.6-1.6,3.6-3.6v-25.5
			C259.6,191.8,258,190.2,256.1,190.2z"/>
		<path fill="#FFFFFF" d="M273.7,190.2c-2,0-3.6,1.6-3.6,3.6v25.5c0,2,1.6,3.6,3.6,3.6s3.6-1.6,3.6-3.6v-25.5
			C277.3,191.8,275.7,190.2,273.7,190.2z"/>
		<path fill="#FFFFFF" d="M291.3,190.2c-2,0-3.6,1.6-3.6,3.6v25.5c0,2,1.6,3.6,3.6,3.6c2,0,3.6-1.6,3.6-3.6v-25.5
			C294.9,191.8,293.3,190.2,291.3,190.2z"/>
		<path fill="#FFFFFF" d="M220.8,234c-2,0-3.6,1.6-3.6,3.6V263c0,2,1.6,3.6,3.6,3.6s3.6-1.6,3.6-3.6v-25.5
			C224.4,235.6,222.8,234,220.8,234z"/>
		<path fill="#FFFFFF" d="M238.4,234c-2,0-3.6,1.6-3.6,3.6V263c0,2,1.6,3.6,3.6,3.6c2,0,3.6-1.6,3.6-3.6v-25.5
			C242,235.6,240.4,234,238.4,234z"/>
		<path fill="#FFFFFF" d="M256.1,234c-2,0-3.6,1.6-3.6,3.6V263c0,2,1.6,3.6,3.6,3.6c2,0,3.6-1.6,3.6-3.6v-25.5
			C259.6,235.6,258,234,256.1,234z"/>
		<path fill="#FFFFFF" d="M273.7,234c-2,0-3.6,1.6-3.6,3.6V263c0,2,1.6,3.6,3.6,3.6s3.6-1.6,3.6-3.6v-25.5
			C277.3,235.6,275.7,234,273.7,234z"/>
		<path fill="#FFFFFF" d="M291.3,234c-2,0-3.6,1.6-3.6,3.6V263c0,2,1.6,3.6,3.6,3.6c2,0,3.6-1.6,3.6-3.6v-25.5
			C294.9,235.6,293.3,234,291.3,234z"/>
		<path fill="#FFFFFF" d="M220.8,277.8c-2,0-3.6,1.6-3.6,3.6v25.5c0,2,1.6,3.6,3.6,3.6s3.6-1.6,3.6-3.6v-25.5
			C224.4,279.4,222.8,277.8,220.8,277.8z"/>
		<path fill="#FFFFFF" d="M238.4,277.8c-2,0-3.6,1.6-3.6,3.6v25.5c0,2,1.6,3.6,3.6,3.6c2,0,3.6-1.6,3.6-3.6v-25.5
			C242,279.4,240.4,277.8,238.4,277.8z"/>
		<path fill="#FFFFFF" d="M256.1,277.8c-2,0-3.6,1.6-3.6,3.6v25.5c0,2,1.6,3.6,3.6,3.6c2,0,3.6-1.6,3.6-3.6v-25.5
			C259.6,279.4,258,277.8,256.1,277.8z"/>
		<path fill="#FFFFFF" d="M273.7,277.8c-2,0-3.6,1.6-3.6,3.6v25.5c0,2,1.6,3.6,3.6,3.6s3.6-1.6,3.6-3.6v-25.5
			C277.3,279.4,275.7,277.8,273.7,277.8z"/>
		<path fill="#FFFFFF" d="M291.3,277.8c-2,0-3.6,1.6-3.6,3.6v25.5c0,2,1.6,3.6,3.6,3.6c2,0,3.6-1.6,3.6-3.6v-25.5
			C294.9,279.4,293.3,277.8,291.3,277.8z"/>
		<path fill="#FFFFFF" d="M220.8,321.6c-2,0-3.6,1.6-3.6,3.6v25.5c0,2,1.6,3.6,3.6,3.6s3.6-1.6,3.6-3.6v-25.5
			C224.4,323.2,222.8,321.6,220.8,321.6z"/>
		<path fill="#FFFFFF" d="M238.4,321.6c-2,0-3.6,1.6-3.6,3.6v25.5c0,2,1.6,3.6,3.6,3.6c2,0,3.6-1.6,3.6-3.6v-25.5
			C242,323.2,240.4,321.6,238.4,321.6z"/>
		<path fill="#FFFFFF" d="M256.1,321.6c-2,0-3.6,1.6-3.6,3.6v25.5c0,2,1.6,3.6,3.6,3.6c2,0,3.6-1.6,3.6-3.6v-25.5
			C259.6,323.2,258,321.6,256.1,321.6z"/>
		<path fill="#FFFFFF" d="M273.7,321.6c-2,0-3.6,1.6-3.6,3.6v25.5c0,2,1.6,3.6,3.6,3.6s3.6-1.6,3.6-3.6v-25.5
			C277.3,323.2,275.7,321.6,273.7,321.6z"/>
		<path fill="#FFFFFF" d="M291.3,321.6c-2,0-3.6,1.6-3.6,3.6v25.5c0,2,1.6,3.6,3.6,3.6c2,0,3.6-1.6,3.6-3.6v-25.5
			C294.9,323.2,293.3,321.6,291.3,321.6z"/>
		<path fill="#FFFFFF" d="M220.8,365.4c-2,0-3.6,1.6-3.6,3.6v25.5c0,2,1.6,3.6,3.6,3.6s3.6-1.6,3.6-3.6V369
			C224.4,367,222.8,365.4,220.8,365.4z"/>
		<path fill="#FFFFFF" d="M238.4,365.4c-2,0-3.6,1.6-3.6,3.6v25.5c0,2,1.6,3.6,3.6,3.6c2,0,3.6-1.6,3.6-3.6V369
			C242,367,240.4,365.4,238.4,365.4z"/>
		<path fill="#FFFFFF" d="M256.1,365.4c-2,0-3.6,1.6-3.6,3.6v25.5c0,2,1.6,3.6,3.6,3.6c2,0,3.6-1.6,3.6-3.6V369
			C259.6,367,258,365.4,256.1,365.4z"/>
		<path fill="#FFFFFF" d="M273.7,365.4c-2,0-3.6,1.6-3.6,3.6v25.5c0,2,1.6,3.6,3.6,3.6s3.6-1.6,3.6-3.6V369
			C277.3,367,275.7,365.4,273.7,365.4z"/>
		<path fill="#FFFFFF" d="M291.3,365.4c-2,0-3.6,1.6-3.6,3.6v25.5c0,2,1.6,3.6,3.6,3.6c2,0,3.6-1.6,3.6-3.6V369
			C294.9,367,293.3,365.4,291.3,365.4z"/>
	</g>
</g>
</svg>
