<?xml version="1.0" encoding="utf-8"?>
<!-- Generator: Adobe Illustrator 18.0.0, SVG Export Plug-In . SVG Version: 6.00 Build 0)  -->
<!DOCTYPE svg PUBLIC "-//W3C//DTD SVG 1.1//EN" "http://www.w3.org/Graphics/SVG/1.1/DTD/svg11.dtd">
<svg version="1.1" id="Capa_1" xmlns="http://www.w3.org/2000/svg" xmlns:xlink="http://www.w3.org/1999/xlink" x="0px" y="0px"
	 viewBox="0 0 216 216" enable-background="new 0 0 216 216" xml:space="preserve">
<g>
	<path fill="#69A3CF" d="M106.6,0C46.9,0.8-0.8,49.8,0,109.5C0.8,169.1,49.8,216.8,109.4,216c59.6-0.8,107.3-49.8,106.5-109.4
		C215.2,46.9,166.2-0.8,106.6,0z M106.2,173.7l-0.6,0c-9.2-0.3-15.7-7-15.4-16.1c0.3-8.9,6.9-15.4,15.8-15.4l0.5,0
		c9.4,0.3,15.8,7,15.6,16.3C121.9,167.5,115.3,173.7,106.2,173.7z M144.9,97.1c-2.2,3.1-6.9,6.9-12.9,11.5l-6.6,4.6
		c-3.6,2.8-5.8,5.5-6.6,8.1c-0.6,2-1,2.6-1,6.8l0,1.1H92.6l0.1-2.1c0.3-8.8,0.5-13.9,4.2-18.2c5.7-6.7,18.2-14.8,18.8-15.1
		c1.8-1.4,3.3-2.9,4.4-4.5c2.6-3.6,3.8-6.5,3.8-9.3c0-3.9-1.2-7.5-3.5-10.7c-2.2-3.1-6.4-4.7-12.5-4.7c-6,0-10.1,1.9-12.6,5.8
		c-2.5,4-3.8,8.2-3.8,12.6v1.1H65.6l0-1.1c0.7-15.9,6.3-27.3,16.9-34c6.6-4.3,14.8-6.4,24.4-6.4c12.6,0,23.1,3,31.5,9.1
		c8.5,6.1,12.7,15.2,12.7,27.1C151.1,85.1,149,91.4,144.9,97.1z"/>
</g>
</svg>
