<?xml version="1.0" encoding="utf-8"?>
<!-- Generator: Adobe Illustrator 18.0.0, SVG Export Plug-In . SVG Version: 6.00 Build 0)  -->
<!DOCTYPE svg PUBLIC "-//W3C//DTD SVG 1.1//EN" "http://www.w3.org/Graphics/SVG/1.1/DTD/svg11.dtd">
<svg version="1.1" id="Capa_1" xmlns="http://www.w3.org/2000/svg" xmlns:xlink="http://www.w3.org/1999/xlink" x="0px" y="0px"
	 viewBox="0 0 216 216" enable-background="new 0 0 216 216" xml:space="preserve">
<path fill="none" stroke="#FFFFFF" stroke-width="5" stroke-miterlimit="10" d="M48.1,204.3H6.9c0,0-26.5-174.2,97.8-192.6l5.2,10.7
	l98.3,6.3l-19.5,37.4c0,0-22.8-20.9-37.1,5.8c0,0-9.7,22,17.9,28.6l-12,28.6L125.6,108c0,0,11,49.3,58.6,96.3h23.9"/>
<path fill="none" stroke="#FFFFFF" stroke-width="5" stroke-miterlimit="10" d="M167.3,204.3h-26.1c0,0-34.2-45.4-36.4-109.3"/>
<path fill="none" stroke="#FFFFFF" stroke-width="5" stroke-miterlimit="10" d="M92.8,63.5c0,0-31.7,62.4,12,140.8h22.4"/>
<path fill="none" stroke="#FFFFFF" stroke-width="5" stroke-miterlimit="10" d="M89.9,204.3H58.3c0,0-34.7-113,23.3-164"/>
<path fill="none" stroke="#FFFFFF" stroke-width="5" stroke-miterlimit="10" d="M187.4,27.3c0,0-4.7,9.9,12.3,17.9"/>
<polyline fill="none" stroke="#FFFFFF" stroke-width="5" stroke-miterlimit="10" points="138.6,47.3 130.2,54.7 124,36.2 
	165.1,36.2 "/>
</svg>
