<?xml version="1.0" encoding="utf-8"?>
<!-- Generator: Adobe Illustrator 18.0.0, SVG Export Plug-In . SVG Version: 6.00 Build 0)  -->
<!DOCTYPE svg PUBLIC "-//W3C//DTD SVG 1.1//EN" "http://www.w3.org/Graphics/SVG/1.1/DTD/svg11.dtd">
<svg version="1.1" id="Capa_1" xmlns="http://www.w3.org/2000/svg" xmlns:xlink="http://www.w3.org/1999/xlink" x="0px" y="0px"
	 viewBox="0 0 478.9 478.9" enable-background="new 0 0 478.9 478.9" xml:space="preserve">
<g>
	<path fill="#FFFFFF" d="M474.4,336.1h-43.8c-3.5-5.4-12.1-23.4,11.2-42.5c1.5-1.2,2-3.3,1.3-5.1c-0.7-1.8-2.5-3-4.4-2.9
		c-1.5,0.1-35.5,1.8-54.7,31.7c-1.5-1.1-3.1-2.2-4.7-3.2c-3.9-30.1-5.5-80.1,19.1-110c1.1-1.4,1.3-3.3,0.5-4.9
		c-0.8-1.6-2.5-2.5-4.3-2.4c-1.2,0.1-30.9,2.5-61.8,21.3c-6.5,4-13.4,9-20.2,15c-4-8.8-8.5-17.2-13.5-25.2
		c-18.3-29.3-43-53.6-73.4-72.2c-51.7-31.6-101.2-35.5-103.3-35.7c-1.8-0.1-3.5,0.8-4.3,2.5c-0.8,1.6-0.5,3.6,0.7,5
		c18.4,20.7,27.4,53,31.2,87c0,0-0.1-0.1-0.1-0.1C113,171.9,77.6,169,76.1,168.9c-1.8-0.1-3.5,0.8-4.3,2.4c-0.8,1.6-0.6,3.5,0.5,4.9
		c20.6,25.1,26,61.9,25.8,94.2c-20.8-10-43.9-11.8-58-11.8c-9.7,0-16.1,0.8-16.3,0.9c-1.6,0.2-3,1.3-3.6,2.8
		c-0.6,1.5-0.3,3.3,0.8,4.5C52.8,304,56.5,327.7,56.6,336H4.5c-2.5,0-4.5,2-4.5,4.5v33.8c0,2.5,2,4.5,4.5,4.5h469.9
		c2.5,0,4.5-2,4.5-4.5v-33.8C478.9,338.1,476.9,336.1,474.4,336.1z M385.9,328.6c1.4-0.2,2.6-1.1,3.2-2.3
		c9.6-17.7,25.3-25.6,36.6-29.1c-11.9,15.7-8.8,30.4-5.1,38.8h-45.5c-0.8-4.1-2.9-10.7-8.4-18.7c5.5,2.8,11.3,6.2,15.4,10.1
		C383.2,328.4,384.6,328.8,385.9,328.6z M337.2,226c18.6-11.4,37-16.5,48-18.7c-18.8,30.4-18.7,72.5-15.6,101.4
		c-8.9-4.3-16.7-6.9-17.3-7c-2-0.6-4.2,0.2-5.2,2c-1.1,1.8-0.7,4.1,0.8,5.5c12.6,11.9,16.7,21.6,18.1,26.8h-29
		c-2.1-34.7-9-66.3-20.6-94.3C322.7,235.9,329.6,230.6,337.2,226z M221.2,143.4c65.6,40.1,101.6,104.9,107,192.7H153.7
		c4.7-28.6,23.2-161.3-21.3-225.6C149.6,113.3,185.2,121.4,221.2,143.4z M85.6,179.3c12.8,2.4,36.1,8.3,59.6,22.7
		c2,1.2,4,2.5,5.9,3.8c4.5,56.8-4,115.3-6.4,130.3H100C104.8,313.7,119.3,231.3,85.6,179.3z M33.3,267.7c2-0.1,4.2-0.1,6.8-0.1
		c16.6,0,39,2.4,57.8,12.6c-1.1,26-5.3,47.8-7,55.9H65.6C65.5,326.1,61.5,302.8,33.3,267.7z M469.9,369.9H9V345h51.8h33.6h44.3h9.8
		H225h45.7h62.2h38.3h8.4h0h48.8h41.6L469.9,369.9L469.9,369.9z"/>
</g>
</svg>
